England 1174: King Richard is away fighting the Crusade, his brother Prince John has been left in charge. In order to further international diplomatic relations with Norway, the beautiful young Maid Marian is to be married off to a prince. A cursed girl who can change into a ferocious dragon is used to find and pacify Robin Hood. 

Subtitles (srt): Brazilian, Dutch, English, Romanian and Spanish.
 
http://www.imdb.com/title/tt1331323/

Covers included.

De sheriff van Nottingham heeft het gemunt op Robin en zijn groep helden die rondhangen in het Sherwood Forrest. Om zijn vijanden te vernietigen, creëert de sheriff een onstuitbaar schepsel dat 's nachts transformeert in Alina, een opvallende vrouw. Robin moet een remedie vinden om Alina normaal te krijgen, nog voor ze haar terreur verspreidt, dit alles terwijl hij zijn jeugdliefde Marion moet beschermen tegen het boze.

Ondertitels (srt) : Braziliaans, Engels, Nederlands, Roemeens en Spaans.
 
http://www.moviemeter.nl/film/64133

General
Complete name                    : Beyond Sherwood Forest-AC3-5,1-DVDRip[Eng]2009.avi
Format                           : AVI
Format/Info                      : Audio Video Interleave
File size                        : 1.36 GiB
Duration                         : 1h 33mn
Overall bit rate                 : 2 094 Kbps
Writing application              : VirtualDubMod 1.5.4.1 (build 2178/release)
Writing library                  : VirtualDubMod build 2178/release

Video
ID                               : 0
Format                           : MPEG-4 Visual
Format profile                   : Simple@L3
Format settings, BVOP            : No
Format settings, QPel            : No
Format settings, GMC             : No warppoints
Format settings, Matrix          : Default (H.263)
Codec ID                         : XVID
Codec ID/Hint                    : XviD
Duration                         : 1h 33mn
Bit rate                         : 1 637 Kbps
Width                            : 640 pixels
Height                           : 352 pixels
Display aspect ratio             : 16:9
Frame rate                       : 23.976 fps
Resolution                       : 24 bits
Colorimetry                      : 4:2:0
Scan type                        : Progressive
Bits/(Pixel*Frame)               : 0.303
Stream size                      : 1.06 GiB (78%)
Writing library                  : XviD 1.1.2 (UTC 2006-11-01)

Audio
ID                               : 1
Format                           : AC-3
Format/Info                      : Audio Coding 3
Codec ID                         : 2000
Duration                         : 1h 33mn
Bit rate mode                    : Constant
Bit rate                         : 448 Kbps
Channel(s)                       : 6 channels
Channel positions                : Front: L C R, Surround: L R, LFE
Sampling rate                    : 48.0 KHz
Stream size                      : 298 MiB (21%)
Alignment                        : Split accross interleaves
Interleave, duration             : 42 ms (1.00 video frame)
Interleave, preload duration     : 500 ms

Brought to you by 
2Lions Team

meer zien??
Kom dan eens kijken op ons forum 
                    
http://www.2lions.ons-forum.nl

2Lions the site to be for all your Dutch MOVIES and more

******************************************

DON T HIT AND RUN Niet gelijk afhaken als de FILM binnen is blijf seeden. 

Don`t quit after you finished the download, but keep seeding

There are fake torrents from uploaders who use our team name.
Those are not ours, or members from our team.
We 2Lions-Team are not responsible for the fake posts on our name

Wij 2Lions-Team zijn niet verantwoordelijk voor die zieke FAKE posten die op onze naam worden gedaan

Please check our site !!!

to the fakers , get a life !!!